# xmcd
#
# Track frame offsets:
#	150
#	10210
#	27090
#	52592
#	64767
#	80057
#	93847
#	110020
#	130512
#	149392
#	163525
#	171902
#	183707
#
# Disc length: 2685 seconds
#
# Revision: 0
# Processed by: cddbd v1.5.2PL0 Copyright (c) Steve Scherf et al.
# Submitted via: EasyCDDAExtractor 10.0.6.1
#
DISCID=a40a7b0d
DTITLE=Various Artist - Holy Ground Hits
DYEAR=1900
DGENRE=Gospel
TTITLE0=New Beginning - Return To The Fountain
TTITLE1=Gary McVay - Let Us Sing Amazing Grace
TTITLE2=Standing Tall - Greatest Love Story
TTITLE3=Dean Ledford - Higher Ground
TTITLE4=Holy Ground Singers - Between The Thieves
TTITLE5=Traci Kegley - Forgiven, Forgotten, Forever
TTITLE6=Wilburns - I Know Jesus In A Special Waw
TTITLE7=Jeff Norris - Bleeding King
TTITLE8=The Hedricks - Moving The Stones
TTITLE9=Gloryland Trio - Love Made A Way
TTITLE10=The Priddys - Reunion In Heaven
TTITLE11=Singing Hartleys - Heavens Got A #1 Retirement Plan
TTITLE12=New Beginning - Track 13Wayfaring Stranger
EXTD=
EXTT0=
EXTT1=
EXTT2=
EXTT3=
EXTT4=
EXTT5=
EXTT6=
EXTT7=
EXTT8=
EXTT9=
EXTT10=
EXTT11=
EXTT12=
PLAYORDER=
